<?xml version="1.0" encoding="UTF-8" standalone="no"?>
<svg
   xmlns:dc="http://purl.org/dc/elements/1.1/"
   xmlns:cc="http://creativecommons.org/ns#"
   xmlns:rdf="http://www.w3.org/1999/02/22-rdf-syntax-ns#"
   xmlns:svg="http://www.w3.org/2000/svg"
   xmlns="http://www.w3.org/2000/svg"
   xmlns:sodipodi="http://sodipodi.sourceforge.net/DTD/sodipodi-0.dtd"
   xmlns:inkscape="http://www.inkscape.org/namespaces/inkscape"
   sodipodi:docname="Logo.svg"
   inkscape:version="1.0 (4035a4fb49, 2020-05-01)"
   id="svg8"
   version="1.1"
   viewBox="0 0 209 208.99902"
   height="208.99902mm"
   width="209mm">
  <defs
     id="defs2">
    <clipPath
       id="clipPath1024"
       clipPathUnits="userSpaceOnUse">
      <rect
         y="10.843611"
         x="65.171791"
         height="19.495434"
         width="54.792923"
         id="rect1026"
         style="fill:#ffffff;stroke-width:0.473001;stroke-linecap:round;stroke-linejoin:round;stop-color:#000000" />
    </clipPath>
  </defs>
  <sodipodi:namedview
     inkscape:window-maximized="1"
     inkscape:window-y="-8"
     inkscape:window-x="-8"
     inkscape:window-height="1017"
     inkscape:window-width="1920"
     fit-margin-bottom="0"
     fit-margin-right="0"
     fit-margin-left="0"
     fit-margin-top="0"
     showgrid="false"
     inkscape:document-rotation="0"
     inkscape:current-layer="g932"
     inkscape:document-units="mm"
     inkscape:cy="658.84335"
     inkscape:cx="636.75958"
     inkscape:zoom="0.50021951"
     inkscape:pageshadow="2"
     inkscape:pageopacity="0.0"
     borderopacity="1.0"
     bordercolor="#666666"
     pagecolor="#ffffff"
     id="base" />
  <metadata
     id="metadata5">
    <rdf:RDF>
      <cc:Work
         rdf:about="">
        <dc:format>image/svg+xml</dc:format>
        <dc:type
           rdf:resource="http://purl.org/dc/dcmitype/StillImage" />
        <dc:title></dc:title>
      </cc:Work>
    </rdf:RDF>
  </metadata>
  <g
     transform="translate(180.35165,16.435793)"
     id="layer1"
     inkscape:groupmode="layer"
     inkscape:label="Calque 1">
    <g
       transform="translate(-343.92138,-96.341537)"
       id="layer1-5"
       inkscape:label="Calque 1">
      <g
         style="stroke-width:1.00003;stroke-miterlimit:4;stroke-dasharray:none"
         transform="matrix(3.5329019,0,0,3.5329019,-134.19996,-500.01604)"
         id="g932">
        <path
           id="path833-1"
           style="fill:#f9e259;fill-opacity:1;stroke:none;stroke-width:1.00003;stroke-linecap:round;stroke-linejoin:round;stroke-miterlimit:4;stroke-dasharray:none"
           d="m 113.86367,164.14885 a 29.578987,29.578987 0 0 0 -29.578937,29.57894 29.578987,29.578987 0 0 0 29.578937,29.57895 29.578987,29.578987 0 0 0 29.57923,-29.57895 29.578987,29.578987 0 0 0 -29.57923,-29.57894 z m 1.3772,8.72054 a 20.858285,20.858285 0 0 1 20.85812,20.8584 20.858285,20.858285 0 0 1 -20.85812,20.85841 20.858285,20.858285 0 0 1 -20.858407,-20.85841 20.858285,20.858285 0 0 1 20.858407,-20.8584 z" />
        <path
           id="path833-7"
           style="fill:#f9a602;fill-opacity:1;stroke:none;stroke-width:1.00003;stroke-linecap:round;stroke-linejoin:round;stroke-miterlimit:4;stroke-dasharray:none"
           d="m 113.86367,164.14885 a 29.578987,29.578987 0 0 0 -29.578937,29.57894 29.578987,29.578987 0 0 0 29.578937,29.57895 29.578987,29.578987 0 0 0 29.57867,-29.42165 24.530158,24.530158 0 0 1 -24.5298,24.37278 24.530158,24.530158 0 0 1 -24.530077,-24.53008 24.530158,24.530158 0 0 1 24.530077,-24.53008 24.530158,24.530158 0 0 1 24.5298,24.399 29.578987,29.578987 0 0 0 -29.57867,-29.44786 z" />
      </g>
    </g>
  </g>
</svg>
